solid JSxCAD
facet normal -0.25000019948843316 -0.43301201218994245 -0.8660256910478815
outer loop
vertex 3.4641 0 1
vertex 0 0 2
vertex 0.86603 1.5 1
endloop
endfacet
facet normal -0.500000896532967 -0.8660248861702702 0
outer loop
vertex 0.86603 1.5 1
vertex 3.4641 0 -1
vertex 3.4641 0 1
endloop
endfacet
facet normal -0.5000008965329668 -0.8660248861702702 0
outer loop
vertex 3.4641 0 -1
vertex 0.86603 1.5 1
vertex 0.86603 1.5 -1
endloop
endfacet
facet normal -0.25000019948843316 -0.43301201218994245 0.8660256910478815
outer loop
vertex 3.4641 0 -1
vertex 0.86603 1.5 -1
vertex 0 0 -2
endloop
endfacet
facet normal 0.8660242547297861 -0.5000019902157576 0
outer loop
vertex 0 0 2
vertex 0.86603 1.5 -1
vertex 0.86603 1.5 1
endloop
endfacet
facet normal 0.8660242547297861 -0.5000019902157576 0
outer loop
vertex 0.86603 1.5 -1
vertex 0 0 2
vertex 0 0 -2
endloop
endfacet
facet normal -1 0 0
outer loop
vertex 0 2 -1
vertex 0 0 2
vertex 0 2 1
endloop
endfacet
facet normal -1 0 0
outer loop
vertex 0 0 2
vertex 0 2 -1
vertex 0 0 -2
endloop
endfacet
facet normal 0.8660255047224238 0.4999998251514908 0.000004330127523960982
outer loop
vertex 16.01314 7.24519 1
vertex 14.28109 10.24519 1
vertex 15.14711 8.74519 2
endloop
endfacet
facet normal 0.8660255047305423 0.499999825156179 0
outer loop
vertex 16.01314 7.24519 -1
vertex 14.28109 10.24519 1
vertex 16.01314 7.24519 1
endloop
endfacet
facet normal 0.8660255047305426 0.4999998251561782 0
outer loop
vertex 16.01314 7.24519 -1
vertex 14.28109 10.24519 -1
vertex 14.28109 10.24519 1
endloop
endfacet
facet normal 0.8660255047224238 0.4999998251514908 -0.000004330127523960982
outer loop
vertex 14.28109 10.24519 -1
vertex 16.01314 7.24519 -1
vertex 15.14711 8.74519 -2
endloop
endfacet
facet normal 0.2499997092448597 -0.43301229523340506 0.8660256910474331
outer loop
vertex 15.14711 8.74519 2
vertex 3.4641 0 1
vertex 16.01314 7.24519 1
endloop
endfacet
facet normal 0.25000009794944233 -0.4330127742966107 0.8660253393066635
outer loop
vertex 3.4641 0 1
vertex 15.14711 8.74519 2
vertex 0 0 2
endloop
endfacet
facet normal -0.2500003345988472 0.4330131841853115 0.8660250660472605
outer loop
vertex 14.28109 10.24519 1
vertex 0 0 2
vertex 15.14711 8.74519 2
endloop
endfacet
facet normal -0.24999996714501713 0.43301270568598593 0.8660254113719713
outer loop
vertex 0 0 2
vertex 14.28109 10.24519 1
vertex 0 2 1
endloop
endfacet
facet normal -0.4999999474320252 0.8660254341345708 0
outer loop
vertex 14.28109 10.24519 1
vertex 0 2 -1
vertex 0 2 1
endloop
endfacet
facet normal -0.4999999474320252 0.8660254341345708 0
outer loop
vertex 0 2 -1
vertex 14.28109 10.24519 1
vertex 14.28109 10.24519 -1
endloop
endfacet
facet normal -0.2500002662046492 0.4330132236725358 -0.8660250660473534
outer loop
vertex 15.14711 8.74519 -2
vertex 0 2 -1
vertex 14.28109 10.24519 -1
endloop
endfacet
facet normal -0.25000005263756586 0.43301269581415613 -0.8660253916283122
outer loop
vertex 0 2 -1
vertex 15.14711 8.74519 -2
vertex 0 0 -2
endloop
endfacet
facet normal 0.24999970924485967 -0.43301229523340506 -0.866025691047433
outer loop
vertex 3.4641 0 -1
vertex 15.14711 8.74519 -2
vertex 16.01314 7.24519 -1
endloop
endfacet
facet normal 0.25000009794944233 -0.4330127742966107 -0.8660253393066635
outer loop
vertex 15.14711 8.74519 -2
vertex 3.4641 0 -1
vertex 0 0 -2
endloop
endfacet
facet normal 0.49999991604406757 -0.8660254522564135 0
outer loop
vertex 3.4641 0 1
vertex 16.01314 7.24519 -1
vertex 16.01314 7.24519 1
endloop
endfacet
facet normal 0.49999991604406735 -0.8660254522564134 0
outer loop
vertex 16.01314 7.24519 -1
vertex 3.4641 0 1
vertex 3.4641 0 -1
endloop
endfacet
facet normal -1 0 0
outer loop
vertex 0 0 2
vertex 0 -2 -1
vertex 0 -2 1
endloop
endfacet
facet normal -1 0 0
outer loop
vertex 0 -2 -1
vertex 0 0 2
vertex 0 0 -2
endloop
endfacet
facet normal 0.8660255047224238 -0.4999998251514908 0.000004330127523960982
outer loop
vertex 14.28109 -10.24519 1
vertex 16.01314 -7.24519 1
vertex 15.14711 -8.74519 2
endloop
endfacet
facet normal 0.8660255047305423 -0.499999825156179 0
outer loop
vertex 14.28109 -10.24519 1
vertex 16.01314 -7.24519 -1
vertex 16.01314 -7.24519 1
endloop
endfacet
facet normal 0.8660255047305426 -0.4999998251561782 0
outer loop
vertex 14.28109 -10.24519 -1
vertex 16.01314 -7.24519 -1
vertex 14.28109 -10.24519 1
endloop
endfacet
facet normal 0.8660255047224238 -0.4999998251514908 -0.000004330127523960982
outer loop
vertex 16.01314 -7.24519 -1
vertex 14.28109 -10.24519 -1
vertex 15.14711 -8.74519 -2
endloop
endfacet
facet normal -0.2500003345988472 -0.4330131841853115 0.8660250660472607
outer loop
vertex 0 0 2
vertex 14.28109 -10.24519 1
vertex 15.14711 -8.74519 2
endloop
endfacet
facet normal -0.24999996714501713 -0.43301270568598593 0.8660254113719713
outer loop
vertex 14.28109 -10.24519 1
vertex 0 0 2
vertex 0 -2 1
endloop
endfacet
facet normal 0.24999970924485967 0.43301229523340506 0.866025691047433
outer loop
vertex 3.4641 0 1
vertex 15.14711 -8.74519 2
vertex 16.01314 -7.24519 1
endloop
endfacet
facet normal 0.25000197545705727 0.4330150882504778 0.8660236403326412
outer loop
vertex 0.86603 1.5 1
vertex 15.14711 -8.74519 2
vertex 3.4641 0 1
endloop
endfacet
facet normal 0.24999979333270847 0.4330122466850693 0.8660256910475298
outer loop
vertex 15.14711 -8.74519 2
vertex 0.86603 1.5 1
vertex 0 0 2
endloop
endfacet
facet normal -3.6092562876815935e-11 0 1
outer loop
vertex 16.01314 -7.24519 1
vertex 0.86603 1.5 1
vertex 3.4641 0 1
endloop
endfacet
facet normal 0.5000000842201 0.8660253551599358 0
outer loop
vertex 16.01314 -7.24519 -1
vertex 0.86603 1.5 1
vertex 16.01314 -7.24519 1
endloop
endfacet
facet normal 0.49999991604334654 0.8660254522551647 -0.0000016982540051395601
outer loop
vertex 3.4641 0 -1
vertex 0.86603 1.5 1
vertex 16.01314 -7.24519 -1
endloop
endfacet
facet normal 0.5000008965329668 0.8660248861702702 0
outer loop
vertex 0.86603 1.5 1
vertex 3.4641 0 -1
vertex 0.86603 1.5 -1
endloop
endfacet
facet normal 0.2499997092448597 0.43301229523340506 -0.8660256910474331
outer loop
vertex 15.14711 -8.74519 -2
vertex 3.4641 0 -1
vertex 16.01314 -7.24519 -1
endloop
endfacet
facet normal 0.25000197545705705 0.43301508825047746 -0.8660236403326412
outer loop
vertex 15.14711 -8.74519 -2
vertex 0.86603 1.5 -1
vertex 3.4641 0 -1
endloop
endfacet
facet normal 0.24999979333270844 0.43301224668506927 -0.8660256910475299
outer loop
vertex 0.86603 1.5 -1
vertex 15.14711 -8.74519 -2
vertex 0 0 -2
endloop
endfacet
facet normal -0.2500002662046492 -0.4330132236725358 -0.8660250660473535
outer loop
vertex 0 -2 -1
vertex 15.14711 -8.74519 -2
vertex 14.28109 -10.24519 -1
endloop
endfacet
facet normal -0.25000005263756586 -0.43301269581415613 -0.8660253916283122
outer loop
vertex 15.14711 -8.74519 -2
vertex 0 -2 -1
vertex 0 0 -2
endloop
endfacet
facet normal -0.4999999474320252 -0.8660254341345708 0
outer loop
vertex 0 -2 -1
vertex 14.28109 -10.24519 1
vertex 0 -2 1
endloop
endfacet
facet normal -0.4999999474320252 -0.8660254341345708 0
outer loop
vertex 14.28109 -10.24519 1
vertex 0 -2 -1
vertex 14.28109 -10.24519 -1
endloop
endfacet
facet normal -0.8660242547297861 0.5000019902157576 0
outer loop
vertex 0.86603 1.5 -1
vertex 0 0 2
vertex 0.86603 1.5 1
endloop
endfacet
facet normal -0.8660242547297861 0.5000019902157576 0
outer loop
vertex 0 0 2
vertex 0.86603 1.5 -1
vertex 0 0 -2
endloop
endfacet
facet normal 0 -1 0
outer loop
vertex -7.75 -11.15 2.05
vertex 0 -11.15 -2.05
vertex 0 -11.15 2.05
endloop
endfacet
facet normal 0 -1 0
outer loop
vertex 0 -11.15 -2.05
vertex -7.75 -11.15 2.05
vertex -7.75 -11.15 -2.05
endloop
endfacet
facet normal 0 0 -1
outer loop
vertex 0 -11.15 -2.05
vertex -7.75 11.15 -2.05
vertex 0 11.15 -2.05
endloop
endfacet
facet normal 0 0 -1
outer loop
vertex -7.75 11.15 -2.05
vertex 0 -11.15 -2.05
vertex -7.75 -11.15 -2.05
endloop
endfacet
facet normal 0 1 0
outer loop
vertex -7.75 11.15 -2.05
vertex 0 11.15 2.05
vertex 0 11.15 -2.05
endloop
endfacet
facet normal 0 1 0
outer loop
vertex 0 11.15 2.05
vertex -7.75 11.15 -2.05
vertex -7.75 11.15 2.05
endloop
endfacet
facet normal 0 0 1
outer loop
vertex -7.75 -11.15 2.05
vertex 0 11.15 2.05
vertex -7.75 11.15 2.05
endloop
endfacet
facet normal 0 0 1
outer loop
vertex 0 11.15 2.05
vertex -7.75 -11.15 2.05
vertex 0 -11.15 2.05
endloop
endfacet
facet normal -0.9999999999999999 0 0
outer loop
vertex -7.75 11.15 -2.05
vertex -7.75 -11.15 2.05
vertex -7.75 11.15 2.05
endloop
endfacet
facet normal -0.9999999999999999 0 0
outer loop
vertex -7.75 -11.15 2.05
vertex -7.75 11.15 -2.05
vertex -7.75 -11.15 -2.05
endloop
endfacet
facet normal 0.9999999999999999 0 0
outer loop
vertex 0 -11.15 -2.05
vertex 0 11.15 2.05
vertex 0 -11.15 2.05
endloop
endfacet
facet normal 0.9999999999999999 0 0
outer loop
vertex 0 11.15 2.05
vertex 0 -11.15 -2.05
vertex 0 11.15 -2.05
endloop
endfacet
facet normal -0.4999998256400495 -0.8660255044511797 0
outer loop
vertex 10.675 -16.49112 2.05
vertex 17.3867 -20.36612 -2.05
vertex 17.3867 -20.36612 2.05
endloop
endfacet
facet normal -0.4999998256400495 -0.8660255044511797 0
outer loop
vertex 17.3867 -20.36612 -2.05
vertex 10.675 -16.49112 2.05
vertex 10.675 -16.49112 -2.05
endloop
endfacet
facet normal 0 0 1
outer loop
vertex 19.325 -1.50888 2.05
vertex 17.3867 -20.36612 2.05
vertex 26.0367 -5.38388 2.05
endloop
endfacet
facet normal 5.2995895556838194e-17 0 1
outer loop
vertex 17.3867 -20.36612 2.05
vertex 19.325 -1.50888 2.05
vertex 10.675 -16.49112 2.05
endloop
endfacet
facet normal 0.49999982564004924 0.8660255044511795 0
outer loop
vertex 26.0367 -5.38388 -2.05
vertex 19.325 -1.50888 2.05
vertex 26.0367 -5.38388 2.05
endloop
endfacet
facet normal 0.4999998256400497 0.8660255044511794 0
outer loop
vertex 19.325 -1.50888 2.05
vertex 26.0367 -5.38388 -2.05
vertex 19.325 -1.50888 -2.05
endloop
endfacet
facet normal 0 0 -1
outer loop
vertex 26.0367 -5.38388 -2.05
vertex 10.675 -16.49112 -2.05
vertex 19.325 -1.50888 -2.05
endloop
endfacet
facet normal 0 0 -1
outer loop
vertex 10.675 -16.49112 -2.05
vertex 26.0367 -5.38388 -2.05
vertex 17.3867 -20.36612 -2.05
endloop
endfacet
facet normal 0.8660254112198316 -0.4999999871215212 0
outer loop
vertex 17.3867 -20.36612 -2.05
vertex 26.0367 -5.38388 2.05
vertex 17.3867 -20.36612 2.05
endloop
endfacet
facet normal 0.8660254112198313 -0.4999999871215215 0
outer loop
vertex 26.0367 -5.38388 2.05
vertex 17.3867 -20.36612 -2.05
vertex 26.0367 -5.38388 -2.05
endloop
endfacet
facet normal -0.8660254112198315 0.4999999871215213 0
outer loop
vertex 19.325 -1.50888 -2.05
vertex 10.675 -16.49112 2.05
vertex 19.325 -1.50888 2.05
endloop
endfacet
facet normal -0.8660254112198315 0.4999999871215213 0
outer loop
vertex 10.675 -16.49112 2.05
vertex 19.325 -1.50888 -2.05
vertex 10.675 -16.49112 -2.05
endloop
endfacet
facet normal 0.49999982564004974 -0.8660255044511797 0
outer loop
vertex 16.825 5.83901 2.05
vertex 23.5367 9.71401 -2.05
vertex 23.5367 9.71401 2.05
endloop
endfacet
facet normal 0.4999998256400493 -0.8660255044511798 0
outer loop
vertex 23.5367 9.71401 -2.05
vertex 16.825 5.83901 2.05
vertex 16.825 5.83901 -2.05
endloop
endfacet
facet normal 0 0 1
outer loop
vertex 19.8867 16.03599 2.05
vertex 16.825 5.83901 2.05
vertex 23.5367 9.71401 2.05
endloop
endfacet
facet normal 0 0 0.9999999999999999
outer loop
vertex 16.825 5.83901 2.05
vertex 19.8867 16.03599 2.05
vertex 13.175 12.16099 2.05
endloop
endfacet
facet normal -0.4999998256400494 0.8660255044511795 0
outer loop
vertex 19.8867 16.03599 -2.05
vertex 13.175 12.16099 2.05
vertex 19.8867 16.03599 2.05
endloop
endfacet
facet normal -0.49999982564004986 0.8660255044511794 0
outer loop
vertex 13.175 12.16099 2.05
vertex 19.8867 16.03599 -2.05
vertex 13.175 12.16099 -2.05
endloop
endfacet
facet normal 0 0 -0.9999999999999999
outer loop
vertex 23.5367 9.71401 -2.05
vertex 13.175 12.16099 -2.05
vertex 19.8867 16.03599 -2.05
endloop
endfacet
facet normal 0 0 -1
outer loop
vertex 13.175 12.16099 -2.05
vertex 23.5367 9.71401 -2.05
vertex 16.825 5.83901 -2.05
endloop
endfacet
facet normal 0.8660252172217098 0.500000323135986 0
outer loop
vertex 23.5367 9.71401 -2.05
vertex 19.8867 16.03599 2.05
vertex 23.5367 9.71401 2.05
endloop
endfacet
facet normal 0.8660252172217101 0.5000003231359852 0
outer loop
vertex 19.8867 16.03599 2.05
vertex 23.5367 9.71401 -2.05
vertex 19.8867 16.03599 -2.05
endloop
endfacet
facet normal -0.8660252172217099 -0.5000003231359857 0
outer loop
vertex 13.175 12.16099 -2.05
vertex 16.825 5.83901 2.05
vertex 13.175 12.16099 2.05
endloop
endfacet
facet normal -0.8660252172217099 -0.5000003231359857 0
outer loop
vertex 16.825 5.83901 2.05
vertex 13.175 12.16099 -2.05
vertex 16.825 5.83901 -2.05
endloop
endfacet
endsolid JSxCAD
