solid JSxCAD
facet normal -0.8660253028382761 -0.5000001748438416 0
outer loop
vertex -2 0 0
vertex -1 -1.73205 20
vertex -2 0 20
endloop
endfacet
facet normal -0.8660253028382761 -0.5000001748438416 0
outer loop
vertex -1 -1.73205 20
vertex -2 0 0
vertex -1 -1.73205 0
endloop
endfacet
facet normal -0.8660253028382761 0.5000001748438416 0
outer loop
vertex -1 1.73205 0
vertex -2 0 20
vertex -1 1.73205 20
endloop
endfacet
facet normal -0.8660253028382761 0.5000001748438416 0
outer loop
vertex -2 0 20
vertex -1 1.73205 0
vertex -2 0 0
endloop
endfacet
facet normal 0 1 0
outer loop
vertex -1 1.73205 0
vertex 1 1.73205 20
vertex 1 1.73205 0
endloop
endfacet
facet normal 0 1 0
outer loop
vertex 1 1.73205 20
vertex -1 1.73205 0
vertex -1 1.73205 20
endloop
endfacet
facet normal 0.8660253028382761 0.5000001748438416 0
outer loop
vertex 2 0 0
vertex 1 1.73205 20
vertex 2 0 20
endloop
endfacet
facet normal 0.8660253028382761 0.5000001748438416 0
outer loop
vertex 1 1.73205 20
vertex 2 0 0
vertex 1 1.73205 0
endloop
endfacet
facet normal 0.8660253028382761 -0.5000001748438416 0
outer loop
vertex 1 -1.73205 0
vertex 2 0 20
vertex 1 -1.73205 20
endloop
endfacet
facet normal 0.8660253028382761 -0.5000001748438416 0
outer loop
vertex 2 0 20
vertex 1 -1.73205 0
vertex 2 0 0
endloop
endfacet
facet normal 0 -1 0
outer loop
vertex -1 -1.73205 20
vertex 1 -1.73205 0
vertex 1 -1.73205 20
endloop
endfacet
facet normal 0 -1 0
outer loop
vertex 1 -1.73205 0
vertex -1 -1.73205 20
vertex -1 -1.73205 0
endloop
endfacet
facet normal 0 0 1
outer loop
vertex 1 1.73205 20
vertex 1 -1.73205 20
vertex 2 0 20
endloop
endfacet
facet normal 0 0 1
outer loop
vertex -1 1.73205 20
vertex 1 -1.73205 20
vertex 1 1.73205 20
endloop
endfacet
facet normal 0 0 1
outer loop
vertex -1 1.73205 20
vertex -1 -1.73205 20
vertex 1 -1.73205 20
endloop
endfacet
facet normal 0 0 1
outer loop
vertex -1 -1.73205 20
vertex -1 1.73205 20
vertex -2 0 20
endloop
endfacet
facet normal 0 0 -1
outer loop
vertex 1 -1.73205 0
vertex 1 1.73205 0
vertex 2 0 0
endloop
endfacet
facet normal 0 0 -1
outer loop
vertex 1 -1.73205 0
vertex -1 1.73205 0
vertex 1 1.73205 0
endloop
endfacet
facet normal 0 0 -1
outer loop
vertex -1 -1.73205 0
vertex -1 1.73205 0
vertex 1 -1.73205 0
endloop
endfacet
facet normal 0 0 -1
outer loop
vertex -1 1.73205 0
vertex -1 -1.73205 0
vertex -2 0 0
endloop
endfacet
endsolid JSxCAD
